<svg width="98" height="24" fill="none" xmlns="http://www.w3.org/2000/svg"><path d="M15.621 4.888h.11c.028.418.084.834.166 1.245.05.289-.065.836-.183.992.031.133.034.27.007.404-.495 2.526-2.24 4.024-3.793 5.439-.705.642-1.465 1.36-2.31 1.832.24.55.72.985 1.032 1.465.287.442.587.836.902 1.25l.141.073c.153.2.278.432.472.589a.985.985 0 00-.086.183h.036c.02-.042.055-.172.08-.073h.036v.036c.022.056 0 0-.008.11h.11c-.064.357.03.292.146.514 0 0-.093.367-.066.405v.037l.076-.037a.918.918 0 01.088-.184v.037c.114.173-.008.752-.13.772-.035-.03-.01-.014-.072-.037a.585.585 0 00-.02-.22h-.036c-.04.121.013.055-.083.11v-.038c-.091-.105-.085-.201-.24-.256v.073c.077.088.04.012.026.147h.074c.04-.03.01-.012.076-.037-.037.187.2.462.141.589-.04.03-.01.012-.077.037l.009-.112c-.21.017-.12-.008-.253-.073-.06-.03-.033.049-.042.073l-.108-.036-.008.11c.082.05.064.045.068.074a.312.312 0 01-.195.147v.036c.12.027.12.06.212.11l-.044.111a1.22 1.22 0 01-.27.147v-.037c-.023-.039-.019-.034-.028-.11-.047-.038.013-.024.046-.11-.038-.034 0 0-.034-.037-.107.065-.149.063-.23.11-.03.04-.025.035-.045.11h.185c.018.06.025.122.023.184h-.075c-.164-.13-.494-.152-.535-.22-.083-.077-.011-.065-.063-.148-.149.09-.21-.03-.326-.073v.073c.075.061.066.105.173.148.06.06.087.064.215.073-.02.076-.014.071-.045.11a1.432 1.432 0 00-.426-.22l-.007.11c.138.071.232.152.389.22v.038h-.036a1.311 1.311 0 01-.577-.184c.098-.054.041.008.082-.11h-.073c-.075.09 0 .113-.159.146a.586.586 0 00-.34-.366c0 .108.068.076-.049.148-.168-.32-.516-.482-.755-.733a7.623 7.623 0 01-.873-1.14c-.04-.062-.167-.083-.21-.146-.075-.109-.088-.215-.16-.331l-.24-.221c-.216-.329-.848-1.506-1.13-1.654v.037c-.138.19-.085.472-.166.732-.206.71-.358 1.435-.455 2.168H5.51v.037c.063.057.05.033.063.148-.186.086-.093.267-.32.33l-.013.184h-.037c-.035-.03-.008-.014-.07-.037l-.03-.11a.218.218 0 00.156-.11h-.11c-.042.075-.088.21-.167.257-.022-.122.023-.056-.065-.11.114.4-.28.788-.581.882v-.075a.276.276 0 00.12-.183c-.037-.033 0 0-.034-.037-.12.071-.133.037-.3.074l.006-.074a.408.408 0 00.12-.184c-.037-.033 0 0-.033-.037H4.14a1.09 1.09 0 01-.13.413c-.037-.033 0 0-.033-.037-.043-.087-.012-.156-.055-.256h-.073a.945.945 0 01-.064.366l-.077.038v-.038c-.036-.068-.01-.262-.048-.33-.07.045-.065 0-.114.037H3.51a.615.615 0 01.096.184c-.088-.014-.055-.024-.148 0 .05.091.104.092.062.184-.043.027-.038.022-.12.037-.033-.145 0-.28-.158-.367-.035-.03-.008-.013-.07-.036v.073c.056.049.039.023.064.11H3.2c-.042-.03-.06-.028-.145-.037-.112-.209-.258-.407-.32-.662a.298.298 0 00.159-.146L3 20.06a.414.414 0 00-.24-.257c-.062.03-.125.055-.19.074v.073a.48.48 0 01.169.183 2.128 2.128 0 00-.334.038l-.029-.111c.078-.013.072-.009.114-.037-.12-.041-.12-.041-.134-.183h.148c.036-.07.066-.145.09-.221H2.52c-.055.115-.12.122-.19.073-.024-.039-.02-.034-.028-.11.12-.03.055.019.12-.073h-.037v-.037h-.037c-.039.024-.014.08-.04.037-.026-.043-.02-.035-.028-.11.142-.195-.047-.403.054-.733.19-.624.126-1.041.308-1.653.383-1.295.729-3.365 1.385-4.777l.028-.366.12-.073c.054-.113.033-.322.066-.405.052.036.071.131.106.074h.036c-.223-.367.25-.988.286-1.36-.03-.062.35-1.072.424-1.25.146-.352.21-.69.368-.992.114-.215.048-.564.168-.77.161-.28.517-1.307.608-1.729l.07.038v-.038c-.043-.122.336-.62.4-.918.13.007.206.05.22.036.07-.057.052-.031.083-.146h-.073c-.04.03-.01.013-.077.037V4.3h.11c.019-.073.035-.146.053-.22h.148c.02-.078.014-.072.045-.112.451-.403.993-.83 1.778-.624.294-.116.565-.36.84-.478.202-.084.283.046.48 0 .096-.022.222-.131.306-.146.12-.022.134.122.29.073.186-.056.412-.137.56-.111.617.11 1.238-.175 1.84.038.265.094.368.297.555.44.165.123.475.06.65.184.127.09.178.316.301.404l.113-.036c.03.026-.01.122.027.147.036.026.24.006.326.074.044.034.044.096.136.146.042.281.183.484.204.809zM2.578 18.81c.06.048.054.063.108.036h.036v-.037h-.144zm.07 1.543h-.185l.006-.073a.424.424 0 00.192-.11l-.013.183zm-.028-.624l-.006.073h.038v-.073H2.62zm-.012.66a.5.5 0 01.144.037l-.006.074h-.11v-.037c-.024-.039-.008-.01-.028-.074zm.072-.477a.42.42 0 01.144.037v.073h-.152l.008-.11zm.275.331c.058-.045.041-.017 0-.074v.074zm.06.11v.073h.074v-.036l-.074-.037zm.078-.55a.381.381 0 00.02.22.38.38 0 00-.02-.222v.001zm.104.587v.073h.073l.006-.073h-.08zm.167-.183H3.4c-.023-.066-.01-.038-.036-.076v.076zm.558-7.092l-.006.073h.037v-.073h-.031zm-.5 7.237c-.012.106-.04.051-.01.11.042.03.06.03.145.037v-.037a.94.94 0 00-.136-.11zm.185-.037c.044.136-.007.174.131.221V20.5c-.026-.043-.024-.061-.026-.147l-.105-.037zm.17.699c-.04.122.014.056-.082.11v-.037c-.026-.038-.012-.01-.031-.073h.113zm.137-.845a1.07 1.07 0 00-.062.33c.038.034 0 0 .034.037h.073l.012-.147c.045-.072.005-.153-.057-.22zm.344-.185c.059.042.035.066.075 0h-.075zm-.023.809c.09.054.042-.007.066.11-.032.038-.014.01-.043.074-.037-.034 0 0-.033-.036-.034-.037-.012-.011-.032-.075.033-.037.014-.01.042-.073zm.218-.441v.073h.073v-.036l-.073-.037zm-.017.221v.073h.037c-.024-.064-.01-.035-.037-.073zm.136-.33v.072h.037v-.073h-.037zm.141.072c-.042.116-.098.231-.138.367h.073v-.073a.292.292 0 00.065-.294zm.376-.11c.036.073.017.066-.01.147h-.037v-.073c.038-.038.02-.004.048-.074zm.285-.845v.074h.037v-.074h-.037zm-.012.147c0 .05.01.1.026.148.033-.038.015-.011.042-.075h.037c.04-.037-.033-.035-.033-.037-.036-.029-.01-.012-.072-.036zm1.69-15.286v.073h.036v-.073h-.037zm.782-.625l-.006.073h.11v-.073h-.104zm-.538 8.231v.074h.037v-.074h-.037zm.045-.11v.074h.03v-.074h-.03zm.271.293h.148c.152-.257.897-.61 1.166-.807.586-.443 1.113-.977 1.69-1.434.203-.162.344-.438.559-.587l.008-.11c.077-.015.072-.01.113-.037.548-.588 1.224-1.839.979-2.756-.292.024-.709-.225-1.171-.11-.384.095-.6.321-.987.404-.03-.113-.028-.107-.137-.147-.12.16-.556.26-.617.366-.31.4-.286.97-.515 1.514-.03.07-.142.16-.165.22l.024.185a51.569 51.569 0 01-.608 1.726l-.063.367c-.144.345-.375.793-.424 1.207zm.773-3.453l-.048.147h.037V8.63c.023-.026.054 0 .042-.073h-.03zm1.321-5.439c.036.03.01.014.071.037-.03-.03-.004-.012-.066-.037h-.005zm.189 17.786h.074v.037h-.076l.002-.037zm.48-.44c.044.059.02.04.104.072V20.5l-.104-.037zm.627.477l.108.036v.037h-.04v.037c-.037-.033 0 0-.035-.037-.034-.037-.014-.006-.033-.073zm.212-.331c.035.03.01.013.071.036-.038-.029-.012-.012-.07-.036zm.439-.441c-.04.08-.036.054-.082.111h.073c.05-.103.072-.03.005-.111h.004zm.05-.183l-.006.073h.11v-.073h-.104zM13.052 2.79v.073c.056-.044.04-.015 0-.074zm.144.036V2.9h.037v-.073h-.037zm.12.294c.036.03.01.013.072.037-.031-.03-.005-.013-.068-.037h-.004zm-1.19 17.013v.073h.037c-.02-.063-.006-.035-.033-.073h-.004zm1.298-16.976v.073h.11v-.036l-.11-.037zm-1.105 15.434h.073c-.048.058-.019.044-.073 0zm-.099 1.319c.027.036.013.01.032.073h-.038l.006-.073zm.106-.441l-.013.183h.037c.071-.032.029-.017.11 0l.01-.11a.479.479 0 01-.144-.07v-.003zm.034.55h.073c-.048.063-.018.05-.073.004v-.003zm2.51-15.943c.056.078.098.11.14.11.032-.037.014-.01.042-.074h-.073c-.042-.027-.034-.022-.108-.036zm.518 3.453c-.015.038-.031.074-.045.112h.11v-.038c-.028-.028-.036-.046-.065-.074zm.047-.146v.073h.036v-.073h-.036zm.137-.845a.466.466 0 00.018.257.464.464 0 00-.018-.257zm.014.294v.073h.036l.006-.073h-.042zm-.018.256c.008.077 0 .071.028.112v-.038c.032-.037.013-.01.042-.074h-.07z" fill="#14004B"/><path d="M17.94 20.398l-.009.11h-.037c-.12-.035-.263.18-.524.11a4.12 4.12 0 01-.857-.366c-.227-.123-.529-.123-.757-.22.02-.09.028-.058.011-.148-.055-.024-.13-.094-.175-.11l-.152.037c-.103-.05-.076-.264-.158-.331-.24-.195-.405.067-.522-.405.077-.013.07-.008.113-.036-.21-.043-.23-.275-.373-.441a.72.72 0 00.053-.22h-.11c-.22-.465-.306-1.127-.395-1.617-.046-.244.097-.592.056-.772-.253-1.126.328-3.43.699-4.447.066-.18.16-.295.217-.44l.064-.367c.037-.067.16-.145.2-.22.068-.122.027-.23.101-.366.12-.225.373-.508.497-.733.182-.327.24-.785.584-.918.069-.044.065 0 .12-.037a.29.29 0 00.084-.146c.006-.043-.007-.047-.026-.148.126-.083.151-.17.24-.293.258-.253.534-.487.825-.699.37-.264.84-.495 1.165-.808.03.026.038.046.068.074.085-.27 1.1-.672 1.308-.733.147-.045.267.085.329.037h.036c-.037-.057-.037-.03-.065-.11.712.053 1.705-.315 2.572.073.306.137.544.44.8.626.081.057.177.048.25.11.104.086.093.218.166.256.046-.03.064-.028.15-.035.036.096.142.157.165.256l-.055.258c.025.086.11.07.13.22-.09.06-.09.053-.12.184.065.055.056.101.137.147.03-.032.05-.042.08-.074a.312.312 0 01-.1-.147h.11a.844.844 0 01.052.294.595.595 0 01.01.366l-.113.037c-.016.088.059.088.056.22h-.036v.038h-.073a.458.458 0 00-.312-.258v.037c.077.098-.017.09.023.184l.207.183c.028.076-.057.431-.007.589.05.157.209.342.256.514l-.016.22a4.5 4.5 0 01.06 1.176c-.014.19-.085.413-.078.55.035.721-.392 1.702-.682 2.243-.105.195-.049.375-.151.55-.21.343-.399.697-.568 1.06-.306.681-.96 1.371-1.398 1.948-.078.104-.085.234-.172.33-.29.326-.539.54-.8.846-.26.306-.266.573-.68.733v.074c.12 0 .054-.062.108.037h-.037c-.275.223-.536.54-.897.66-.303.102-.47-.02-.742.074-.151.052-.36.273-.501.294-.14.02-.192-.088-.405-.11zm-3.346-7.534c.036.03.01.013.07.038-.034-.027-.008-.01-.07-.034v-.004zm-.2 2.687v.073h.037c-.023-.065-.009-.035-.036-.073zm.272 2.793v.073h.11v-.037l-.11-.036zm.36.66l-.01.148h.073v-.074c-.032-.023-.032-.046-.066-.073h.003zm.487.882h.074v.075h-.073l-.001-.075zm2.655-3.013l.008-.11c.24.014.437.014.527-.146-.11.013-.082.073-.145-.037.086-.081.05-.11.195-.147.02-.076.015-.07.045-.11.12-.113.27-.122.354-.295-.077-.086-.04-.012-.026-.146.143-.128.187-.215.39-.295l-.026-.146h.11l.012-.147c.161-.077.039-.138.208-.33.056-.065.17-.089.232-.147.06-.059.203-.489.307-.662.154-.258.396-.603.545-.882l.066-.404c.14-.328.274-.693.36-.919.106-.332.132-.685.076-1.03-.029-.121-.097-.357-.043-.403-.268-.287-.547-.375-.84-.661l.043-.073a.814.814 0 00.325.073c-.01-.186.014-.043.05-.185h-.036v-.036c-.164-.02-.367-.048-.466-.183a.7.7 0 01.225-.037c.186.078.379.139.575.183h.037v-.036a.371.371 0 01-.215-.092.383.383 0 01-.12-.203c-.624 0-.947.437-1.341.699-.544.366-.747.855-1.067 1.465-.657 1.26-1.426 3.844-.801 5.329.147.022.293.059.433.11l.003.003zm-.988 3.381c.053.085.047.087.176.111v-.074a.584.584 0 00-.18-.037h.005zm.36.148l-.044.11h.184a.242.242 0 01.08-.074v-.036h-.22zm.546.11h.073v.036h-.074v-.036zm2.107-1.1l-.006.074h.034c-.022-.065-.009-.038-.035-.076l.007.003zm1.009-10.106c.036.03.01.014.07.038-.041-.033-.015-.016-.077-.04l.007.002zm-.02 1.137c.026.038.012.011.03.074h-.03v-.074zm.138-1.359c.045.06.02.042.104.073v-.036l-.104-.037zm-.014.662c.001.05.01.1.027.146h.037V9.82c-.023-.028-.03-.046-.061-.073h-.003zm.788-4.152v.073h.073l.006-.073h-.079zm.256.036c.053.067.029.051.141.073v-.036h-.035V5.63h-.106zm.114.441c.036.03.01.013.07.037-.032-.03-.005-.014-.068-.037h-.002zm.492-.183c-.018-.065 0-.037-.031-.075v.075h.031zm.027.146c.045.06.02.04.104.074V6.07l-.104-.037zm.6.441l-.006.074c.059-.044.042-.015.006-.074zm.693.588V7.1h-.037c-.072.028.07.035.07.035.038-.04 0 0 .04-.035-.046-.03-.015-.015-.078-.038h.005zm.211.625c-.015.051.05.054.069.073.024-.039-.064-.064-.074-.073h.005zm-.021.294c.056.11.105.195.176.11-.11-.039-.086-.067-.181-.11h.005zm.293.515c.026.07.015.026-.008.11h-.037V8.57h-.037v-.037c.067-.023.037-.007.077-.036h.005zm-.045 1.099v.074h.037l.006-.074h-.043zm-.032 1.434l-.046.11h.073c-.012-.074-.008-.069-.032-.108l.005-.002zm-.078.55l.029.111h.036v-.037h.037v-.037h-.036c-.036-.027-.006-.012-.071-.034l.005-.003zm.169-1.286l-.006.074h.037v-.074h-.031zm19.385-3.898l.02-.22c-.105.051-.12.108-.134.254-.075-.016-.07-.01-.107-.039-.03-.067 0-.066.018-.183a.423.423 0 00-.19.07 3.001 3.001 0 01-.027-.112.754.754 0 01.3-.067.63.63 0 00-.016-.22c-.006-.036.009-.027-.107-.04-.012-.13-.032-.165.062-.256-.046-.093.013-.043-.104-.076 0-.13.028-.093-.06-.148-.06-.03-.206.053-.303.104l-.011.11c-.131.028-.134.051-.198.143-.062-.025-.035-.008-.07-.038-.055-.032.043-.056.084-.109h-.04v-.037c-.021-.033-.076.069-.08.072h-.037c.084-.136.162-.213.105-.33v-.036c-.022-.033-.076.068-.08.072h-.075l.065-.293a.199.199 0 01.068.075h.036c-.057-.253-.235-.245-.36-.413-.165.18-.232.72-.194.88l-.114.033a1.16 1.16 0 00-.093-.185c-.034-.03-.008-.014-.07-.038v.036h-.038c.034.09.09.167.164.225l-.008.073a1.317 1.317 0 00-.316-.153c.032-.133.057-.268.074-.403a.415.415 0 00-.143-.04.393.393 0 00-.016-.222c-.017-.056-.12-.112-.204-.188V4.66a1.288 1.288 0 00-.111.403.382.382 0 01-.016-.22h-.11c-.068.184-.199.264-.266.472a.69.69 0 00.24.19c-.12.054-.19-.05-.283-.117-.084.122-.127.146-.234.142.04.09-.02.026.066.076a.283.283 0 01-.088.145c-.03.024-.086.046-.12.07H41l.044-.072h-.037v-.037c-.11.137-.21.283-.299.436l-.042.44c-.1.139-.396.702-.436 1.1h-.109c.053.357-.579 1.375-.793 1.75-.155.271-.217.52-.37.803-.284.521-2.179 4.863-2.575 5.129.044.093-.013.043.103.076v.036a1.14 1.14 0 00-.19.071h-.038c-.023.072.012.048.03.075-.055.08-.103.075-.194.106-.028.114-.032.088-.017.183a.51.51 0 01-.14-.076l-.022.123a2.56 2.56 0 01-.292.23c-.031-.123-.057-.245-.083-.367l.007-.08c0-2.144.405-5.232.948-6.77.057-.164 0-.316.072-.489l.366-.798c.08-.177-.071-.142.035-.26 0-.165.03-.448-.039-.546v-.042c-.134.084-.206.336-.257.496h-.037v.036H36.6c.022-.28.144-.435.07-.629l.111-.045c-.033-.195-.1-.115-.148-.282-.032-.078-.03-.038.035-.112-.03-.15-.008-.11-.11-.102v-.146a.262.262 0 00-.148.048c-.187.032-.167.06-.22.2l-.111.01a.978.978 0 01.11-.266v-.146h-.075a1.034 1.034 0 01-.147.342v.036h-.037c.034-.114.089-.122.036-.222v-.073l-.11.008v.11h-.038V6.07h-.037c.036-.116.087-.193.073-.263-.022-.194-.089-.18-.186-.278l-.185.013-.036.077c-.06.146-.035.244-.109.375-.043.072-.2.161-.22.237l.036.106h-.037v.037l-.11.008c.046-.183.122-.358.224-.516v-.22c-.059.054-.043.025-.073.115-.098-.036-.077-.065-.185-.096-.035.12-.085.235-.147.342v.037h-.074V5.75c-.027-.053-.077-.017-.11-.1-.101.057-.094.057-.11.19a1.291 1.291 0 00-.112-.101 3.288 3.288 0 01-.293.5v.073c-.03-.04-.03-.059-.038-.143-.105.012-.054.03-.11.008-.095.058-.099.098-.11.229-.076-.01-.072 0-.111-.028h-.037c.022.112.007.089.074.14-.054.095-.016.06-.148.086.039.026.01.012.075.03-.084.244-.273.489-.366.724-.21.523-.292.985-.512 1.506a36.166 36.166 0 01-.952 2.016c-.225.451-.446 1.222-.806 1.528a.4.4 0 00.075.105c-.038.028-.148.059-.185.087-.05.084-.011.104 0 .183-.05.09-.203.092-.259.168-.152.21-.233.463-.44.62v.147c-.17.041-.203.097-.221.273-.128.036-.508.489-.552.593l.038.107c-.12.214-.437.197-.405.471-.063-.02-.036 0-.074-.031-.024.033-.05.122-.074.152v.037h-.073l-.068.19a1.743 1.743 0 01-.226.152c-.037-.122-.106-.279-.143-.421l.013-.052a2.53 2.53 0 010-.301c.017-.102.032-.203.014-.21.054-.39.134-.774.24-1.152.2-.862.24-1.727.496-2.515l-.022-.217c.04-.176.162-.472.2-.623l-.06-.211.075-.013a5.969 5.969 0 01-.016-.145l.071-.049a9.026 9.026 0 01-.055-.174c.02-.042.152-.087.173-.14l-.022-.217c.13-.342.296-.757.413-1.1.052-.152 0-.243.075-.38.14-.26.35-.52.32-.903l.11-.018a2.388 2.388 0 01.049-.635.55.55 0 00-.065-.284v-.035c-.11.098.006.213-.163.244.05.144.01.063.12.09-.048.078-.096.08-.132.17a1.495 1.495 0 00-.264-.028c.016-.067 0-.036.028-.079.076-.02.028-.038.078.024.201-.172-.016-.427.12-.61-.14-.271-.24-.177-.2-.52l-.037.008c-.168-.048-.27.187-.382.286.056.102.02.082.157.084v.036l-.037.006.007.073-.036.006V5.62a.89.89 0 01-.265-.028c.024-.091.008-.062.063-.122v-.036a.599.599 0 00-.14.097c-.037-.116 0-.102.012-.26l-.11.02a.492.492 0 01-.12.278v.037l-.038.006a.745.745 0 01.198-.53l-.021-.218-.073.013.014.144-.11.02c.027.097.055.097.018.18-.037.061-.047 0-.104.092-.066-.013-.036 0-.077-.024 0-.048.093-.326.078-.345.046-.098.01-.06.14-.097l-.008-.073c-.11.015-.104-.009-.147.026-.105.06-.094.101-.168.176.04.08.019.057.084.096v.035l-.18.069c-.028.18-.112.205-.109.424-.182.079-.223.287-.33.425v.035h-.037c.01-.09.027-.178.048-.265l.11-.02c0-.041-.007-.075-.008-.105l-.056.04v.037h-.038c0-.051.008-.102.023-.151l-.147.026-.008-.074.07-.049v-.035c.034-.043.04.03.04.03.032.034.026.03.049.102.085.028.037-.01.067.039a.21.21 0 01.09-.173c-.063-.081-.021-.055-.155-.048.04-.092.074-.07.136-.134l.037-.006a.521.521 0 00-.128-.163s-.007-.072-.04-.03v.037c-.083.097-.035.022-.023.15-.105-.023-.167-.187-.22-.33h-.037l-.028.08c.008.026-.01.025.08.059-.016.234-.106.046-.159.284l-.073.014v-.037c-.033-.032-.014-.006-.044-.066.08-.052.1-.042.136-.134l.037-.006-.008-.072c-.288.093-.437.518-.72.675 0 .037.008.072.012.109.061-.034.035-.014.07-.049l.109-.02v.037l-.07.049c-.045.09-.09.095-.144.061a.944.944 0 00-.178.309c-.024.076.065.11.052.138-.021.049-.2.225-.232.298-.253.583-.34 1.153-.572 1.755-.776 2.018-1.026 4.624-1.458 7.098l.047.47c-.13.978.109 2.293.36 2.885.037.086.175.122.205.186 0 .074-.01.149-.015.223a1.159 1.159 0 00.624.63c.047-.008.02.02.07-.05.223.013.25.245.407.336.063.016.017-.049.11-.02.192-.011.267.093.36.197v.014c.183-.012.367.01.542.065l.258-.02v-.073h-.037v-.037c-.156.007-.099-.037-.184.051h-.074l.036-.15c.152 0 .26 0 .332.084.05-.023.028-.015.038-.039.054-.095-.01-.042.11-.081v.146c.042-.035.106-.08.147-.122.035.068.015.027 0 .11.105-.012.053-.03.11-.009.1-.068.037 0 .036-.112.274.085.304-.156.59-.155a.643.643 0 00.037-.224c.03.016.055.04.074.067.232-.1.656-.703.841-.908.822-.882 1.71-1.743 2.39-2.75h.074c.142.306.252 2.217.549 2.442.22.165.6.254.705.531.079-.039.052-.035.11-.082.342.333.827.468 1.406.551a.242.242 0 01.024-.025c.006 0 .011.01.018.015l-.01.057a.617.617 0 00.047-.04h.012l.047-.075c.072.046.028 0 .011.14.11-.039.106-.052.161-.144.024.04.02.035.026.111.216-.022.425-.094.61-.208.015.09.008.058-.014.146a.5.5 0 00.157-.104h.009a.332.332 0 01.068-.032c-.037.027-.016.016-.068.032h-.009l-.007.071h.148l.01-.11.104.076c.175-.176.27-.17.509-.321.327-.207.627-.539.922-.79.031-.04.027-.035.047-.11h.11l-.026-.111c.48-.2 1.302-1.43 1.695-1.955 1.218-1.618 2.337-5.26 3.386-7.064.141-.244.205-.673.3-.84.116-.187.22-.382.313-.582.094-.237.036-.383.132-.624.097-.212.328-.585.232-.793zm-14.255.324l-.007-.073.074-.012.007.072-.073.013zm.191-.546l-.007-.072.073-.013.008.072-.074.013zm-.027-.295c.093.072.007.08.12.054l.01.109h-.187a.559.559 0 01.057-.163zm-.093.568l.036-.006v-.037c.034.033.015.008.045.068-.005.003-.15.015-.082-.025h.001zm.012-.995c.06.085.02.091-.019.187l-.036.006a.407.407 0 01.054-.193h.001zm-.01.477l-.074.013-.01-.11c.097.033.04-.014.082.097h.002zm-.1.496c.094.072.007.08.12.054l.01.109h-.186a.555.555 0 01.055-.163zm-.093.568l.037-.006V6.95c.033.033.014.008.044.066-.005 0-.15.017-.082-.023h.001zm.012-.996c.06.086.02.092-.018.188l-.037.006a.417.417 0 01.054-.194h.002zm-.46.263c.067.013.038 0 .077.024h-.036v.036h-.037l-.003-.06zm.267-.517h-.036v.036h-.037l-.007-.072c.065.02.04.009.08.036zm-.48 4.169h.037v-.037c.034.033.015.008.044.066-.003-.01-.148.006-.081-.034v.005zm.38-4.228l-.038.006v.037l-.037.006-.011-.109c.1.027.028-.024.085.055v.005zm-.104.091c.023.022.053-.007.044.066h-.037c-.035.036-.01.015-.07.05l-.007-.073c.062-.033.035-.012.07-.047v.004zm-.39 4.706s-.144.017-.076-.023h.036v-.037c.03.022.01-.003.04.055v.005zm.235-4.753c.015.008.076 0 .045.066-.044-.015-.122-.051-.045-.071v.005zm-.432 5.932h-.036v.036h-.037l-.008-.073c.07.02.041.009.08.032v.005zm-2.555 7.096v.073h-.038v-.073h.038zm-.065.488a.42.42 0 01.077.104c-.123-.056-.074-.012-.077-.115v.011zm.08.294l-.007-.072.037-.006.007.072-.037.006zm1.042-13.29l.11-.018c-.06.032-.043.03-.11.007v.011zm.085-.122l-.049-.101.074-.014.01.109-.035.006zm.106-.423l.11-.02c-.06.033-.044.03-.11.01v.01zm-.749 14.003c-.032-.022-.12-.04-.149-.06-.029-.021-.013-.01-.038-.07.09.017.178.045.26.086v.036l-.073.008zm.889.322v.037l-.185-.022v-.026l.079-.022.106.033zm1.364-14.619h-.037v.036l-.037.007-.007-.073c.069.007.04-.003.08.02v.01zm-.177.104l.11-.02c-.014.083-.033.081.015.146v.035c-.106.014-.056-.016-.11.02l-.038.006a1.95 1.95 0 01.023-.202v.015zm-.008.295h-.036l-.007-.072c.033.027.014.007.043.061v.011zm0 .147l-.037.006v.036l-.038.007-.007-.073c.065 0 .035-.01.076.013l.006.011zm-.177.104l.11-.02c-.014.083-.033.08.015.146v.035c-.105.013-.056-.016-.11.02l-.035-.009a1.61 1.61 0 01.014-.183l.006.01zm-.007.295h-.037l-.007-.072c.03.027.008.002.038.061l.006.011zm-.397-.444v.11h-.038l-.038-.107.076-.003zm-.85 14.289c.064.018.037 0 .074.03-.07-.032-.04-.019-.08-.045l.007.015zm.222-.054l.11.028v.037c-.092-.04-.066-.024-.116-.08l.006.015zm.996-.114c.065.019.038 0 .075.031-.07-.03-.042-.02-.08-.046l.005.015zm4.235-3.517v-.074c.03.035.015.008.038.07l-.038.004zm3.242-10.073v.11c-.028-.038-.024-.032-.037-.107l.038-.003zm-.335-.707v.11l-.11-.028c.05-.11-.013-.058.107-.097l.003.015zm-1.362 13.42a.38.38 0 01.111.066c-.091-.027-.064-.01-.111-.066zm.259.2v-.073l.075.03v.037l-.075.006zm.112-.009l.183.022v.037c-.134-.001-.126.007-.187-.059h.004zm.923.148c-.064-.018-.036 0-.073-.03.06.018.032.005.07.03h.003zm-.055.083c.061.025.036.008.07.038-.065-.026-.039-.009-.074-.038h.004zm.654-.205a.389.389 0 01.066-.04c-.038.031-.019.018-.07.04h.004zm.655-.634c.063.019.036 0 .073.03-.067-.019-.04-.004-.077-.03h.004zm.074.244c.061.026.035.009.07.04-.065-.03-.039-.013-.074-.043l.004.003zm.11-.218v-.075h.037v.072l-.036.003zm.108.26h-.038l.008-.075h.035a.629.629 0 00-.01.071l.005.004zm3.706-12.8H40.9v-.036h-.037a.659.659 0 01.087-.147c.03.069.004.069-.016.18l.003.004zm.071-.366c.054.048.137.072.06.148a.34.34 0 01-.063-.151l.003.003zm.08.332h.037v-.036c.025.038.012.008.028.073 0-.002-.142-.013-.07-.04l.004.003zm.285-.288h-.11a.3.3 0 01.006-.073h.11l-.006.073zm.396-.691h-.073l-.026-.11c.061.025.036.007.07.038h.037l-.008.072zM42 5.104c-.084-.034-.06-.015-.103-.076l.107.04-.004.036zm.075.366l.018-.183c.063.062.058.054.056.184h-.074zm.28.517c-.12-.054-.074-.012-.064-.113l.07.038-.007.075zm.704-.833v.036c-.025-.043-.024-.06-.023-.147H43a.268.268 0 00.013.257v.037a.51.51 0 01-.14-.077c.022-.074.016-.07.047-.109.036-.244.074-.11.172-.254a.248.248 0 01-.032.262v-.005zm.1.885v.037h-.036a.52.52 0 00.05-.147c.023.069.024.058-.018.115l.004-.005zm.51.452h.038l-.011.11s-.033.015-.034-.037h-.036l.043-.073zm-.044-.7l-.007.074c-.065.022-.036.007-.077.035h-.036l.043-.072c-.17.078-.145.193-.211.29v.036h-.038c.039-.424.028-.313.193-.475h.147c-.018.112-.035.064-.014.117v-.005zm-.042 1.619v.037h-.037c.01-.05.027-.1.05-.146.023.068.024.051-.013.113V7.41zm.215-.324c-.054.026-.048.01-.107-.04-.037-.033 0 0-.034-.037a.684.684 0 00.204-.216.332.332 0 01-.063.293zm.192-.475h-.037c-.03.063-.01.036-.044.073-.033.037-.01.014-.076.036v-.037h-.038l.058-.219c.064.048.055.074.137.113v.034zm-1.075 12.837c.12-.03.055.018.12-.073 0-.048.13-.168.092-.258-.044-.047-.102-.122-.142-.073-.078.1-.092.315-.144.44h-.036v-.036c-.03-.076.034-.234.064-.366h-.074v-.037h-.036c-.04.122.013.056-.083.11l.012-.147c.145-.057.07-.058.12-.183a.53.53 0 01-.275-.258c.077-.013.07-.008.113-.036-.04-.078-.008-.101.015-.221h-.036v.037a.869.869 0 00-.084.147c-.133.008-.072-.055-.12.073.181.146.221.384.097.663h-.073l.009-.112a.578.578 0 00.092-.256c-.09-.026-.062-.087-.108-.037a1.165 1.165 0 00-.017.22l-.296.037c-.015-.122-.076-.104-.098-.184l.054-.22c0-.015-.097-.086-.103-.11-.04-.19.13-.463-.066-.59a.865.865 0 01-.1.367v-.073c-.138-.206-.012-.79.078-1.065.24-.733.438-1.433.643-2.206.14-.527.318-1.496.6-2.093a1.682 1.682 0 01-.007-.405c.162-.51.288-1.238.506-1.832.04-.196.078-.392.12-.588.19-.468.36-1.034.516-1.507.024-.159.05-.319.072-.477.182-.5.463-1.133.532-1.69.077-.014.07-.01.113-.037-.07-.152.276-.65.394-.846.07.032.142.056.216.074.057-.474.516-.788.84-.882v.037c.038.034 0 0 .035.036-.091.061-.044.13-.093.258h.074c.104-.132.268-.111.384-.221.095-.09.087-.18.203-.257l-.007.11c-.085.14-.158.288-.217.441.04.09-.018.026.068.074.056-.16.12-.123.2-.22l.139-.333h.11l-.02.258a.705.705 0 00-.154.11.296.296 0 01.102.11.759.759 0 00-.155.11.6.6 0 01.142.074c-.064.05-.043.024-.083.11h.148a1.602 1.602 0 01.027-.366c.078-.013.072-.009.113-.037.101-.101.045-.183.161-.183.24.22.315.586.377.882h.037a.788.788 0 01.064-.366.255.255 0 01.15-.037v.037h.036c.007.073.015.146.02.22a.712.712 0 00-.152.074c.149.066.24.046.24.256h.037c.034.038-.04.037-.04.037-.096.074-.092-.03-.158.148.11-.015.05-.061.108.036.058.098.032.611-.02.771-.06.177-.17.366-.223.515-.093.26-.09.637-.219.955-.401.997-.638 2.347-1.024 3.381-.16.428-.12.922-.348 1.213.052.413-.307 1.702-.48 2.021l-.087.66c-.226.65-.368 1.436-.632 2.059-.142.337-.12.66-.427.808-.047.03-.035.014-.114.037-.078.18-.203.232-.29.44h.036v.037a.88.88 0 00.287-.404h.038l-.017.221a.298.298 0 00-.084.147c-.33.17-.5.445-.814.55.01-.106.038-.05.008-.11-.04.03-.012.014-.077.037a.704.704 0 00-.018-.256h-.073c-.029.184-.063.262-.24.293l.006-.073a.26.26 0 00.12-.184h-.036v-.036h-.038c-.017.15-.015.167-.126.22v.036h-.044v-.073c.129-.152.23-.326.297-.514h-.038c-.055.084-.049.067-.079.073-.107-.161.013-.287.11-.478h-.037c-.073.1-.22.153-.277.257-.12.212-.078.841-.434.882v-.037H42.9l.015-.116zM48.15 6.515V6.44c-.108 0-.05-.035-.11 0h-.038c.035.03.009.013.071.038.041.03.015.012.077.037zm-.056.256c-.022-.122.022-.056-.065-.11l-.009.11h.074zm.068-.918l.006-.074h-.074v.037l.068.037zm-.106-.551c-.09-.054-.043.007-.066-.11h.038v-.038c.062.023.034.007.07.038.088.046.027-.016.069.073-.076.014-.07.009-.11.037zm-.026-.148h-.072v-.073h.074l-.002.073zm-.147.479a.86.86 0 00-.014-.295.395.395 0 00-.12.184h.036c.03.106-.002.068.099.11zm-.12.11v-.074h-.073l-.006.074h.08zm-.064.366l.019-.22h-.074l-.016.22h.07zm-.101-1.028h.036l.042-.074h-.036c0-.05-.035-.036-.035-.036l-.007.11zm-.034.44c0-.046.077-.068.008-.11 0-.038-.076.102-.081.11h.073zm-1.167-.145v-.073h-.037v.073h.037zm-.247-.148l.044-.11h-.073c.005.076 0 .07.025.11h.004zm-.274.222l.09-.222h-.037c-.08.115-.146.126-.057.22l.004.002zm-.48.55c.04-.08.035-.052.082-.11h-.11l-.043.074.07.036zM44.18 19.265l.046-.11h-.073l-.006.073-.04.037h.074zm.876-12.273l.043-.074c-.068.046-.043.074-.043.074zm-1.028 12.346c.016-.051-.048-.054-.069-.073-.028.034.06.062.069.073zm-.274-.294v-.073h-.036c.024.064.01.035.036.073zm.024-.331l.006-.073h-.03c.013.064 0 .036.025.073zm-.105.442v-.075h-.038c.026.065.011.037.039.075h-.001zm-.169-.221h-.073v-.037c.066.024.039.008.075.036h-.002zm-.402-.037v-.073h-.036c.024.063.01.035.037.073zm.375-6.541a.29.29 0 00-.023-.183.381.381 0 01-.088.183h.11zm-.095.294l.046-.11c-.11.042-.1.025-.045.11h-.001zm-.562 5.585c-.036-.029-.01-.012-.07-.036.035.029.009.013.071.036h-.001zm-.047-.366l.006-.073h-.037l-.006.073h.037zm.287-3.858v-.073h-.026c.014.063 0 .034.027.072zm-.38 4.116l.012-.147h-.038c-.007.128-.056.062.028.145l-.001.002zm.024-2.793l.006-.074h-.036v.074h.03zm-.561 3.599c0-.086 0-.104-.027-.148.002.088 0 .106.027.148zm.054-.733l.006-.073h-.037v.073h.03zm-.18-.55c.121-.031.055.016.121-.074-.027-.038-.012-.011-.031-.075h-.037v.037c-.038.039-.033.034-.052.11v.001zm.015.292c.05-.088.08-.063.048-.146l-.029-.11h-.037l-.019.256h.037z" fill="#14004B"/><path d="M54 5h44v16l-43.956-.02L54 5z" fill="url(#paint0_linear_1_3432)"/><path d="M63.826 8.429h-2.493v9.143h2.493v-1.22H62.64V9.648h1.187v-1.22zm5.122 6.135c-.41.144-.758.242-1.05.242-.52 0-.804-.304-.804-.887V12.17h1.863v-1.21h-1.863V9.616l-1.306.278v1.067h-.895v1.21h.895v1.82c0 1.416.877 2.008 1.882 2.008.602 0 1.223-.216 1.497-.395l-.219-1.04zm3.499-3.711c-1.535 0-2.622 1.103-2.622 2.582 0 1.47 1.078 2.563 2.649 2.563 1.078 0 2.082-.51 2.457-1.676h-1.352c-.174.395-.612.619-1.114.619-.676 0-1.224-.395-1.306-1.183h3.854c.128-1.623-.904-2.905-2.567-2.905zm-.01 1.058c.63 0 1.041.368 1.188.905h-2.402c.164-.529.575-.905 1.214-.905zm6.141 4.087c1.205 0 2.31-.69 2.511-1.99h-1.342c-.156.538-.63.807-1.17.807-.766 0-1.296-.564-1.287-1.39-.01-.815.502-1.388 1.297-1.388.53 0 1.004.26 1.16.797h1.342c-.192-1.255-1.278-1.98-2.502-1.98-1.516 0-2.621 1.11-2.621 2.572 0 1.461 1.105 2.572 2.612 2.572zm6.435-5.145c-.694 0-1.196.278-1.561.78V8.99h-1.306v6.902h1.306V13.3c0-.807.392-1.229 1.123-1.229.685 0 .94.359.94 1.004v2.815h1.307v-3.092c0-1.21-.685-1.946-1.809-1.946zm3.16-2.424v1.219h1.187v6.704h-1.187v1.22h2.493V8.429h-2.493z" fill="#fff"/><defs><linearGradient id="paint0_linear_1_3432" x1="49.266" y1="27.75" x2="102.819" y2="-5.91" gradientUnits="userSpaceOnUse"><stop stop-color="#14004B"/><stop offset=".144" stop-color="#4164EE"/><stop offset=".629" stop-color="#9C88D7"/><stop offset=".879" stop-color="#F5AABE"/><stop offset="1" stop-color="#0AA"/></linearGradient></defs></svg>